<svg version="1.1" id="Layer_1" xmlns="http://www.w3.org/2000/svg" xmlns:xlink="http://www.w3.org/1999/xlink" x="0px" y="0px"
	 width="100%" viewBox="0 0 1080 1080" enable-background="new 0 0 1080 1080" xml:space="preserve">
<path fill="#000000" opacity="1.000000" stroke="none" 
	d="
M604.000000,1081.000000 
	C402.689850,1081.000000 201.879684,1081.000000 1.034763,1081.000000 
	C1.034763,721.064697 1.034763,361.129425 1.034763,1.097076 
	C360.893738,1.097076 720.787476,1.097076 1080.840576,1.097076 
	C1080.840576,360.999939 1080.840576,720.999939 1080.840576,1081.000000 
	C922.128967,1081.000000 763.314514,1081.000000 604.000000,1081.000000 
M549.116516,292.001709 
	C540.461548,293.334076 531.742859,294.347504 523.164246,296.061951 
	C502.078949,300.275787 482.545471,308.587708 464.558472,320.219421 
	C448.088593,330.870087 433.843201,344.059570 421.742981,359.639435 
	C407.074951,378.525452 395.239471,398.960358 386.418945,421.148010 
	C377.817993,442.783264 373.946655,465.219574 374.929688,488.540924 
	C375.350159,498.516510 375.009705,508.524567 374.998260,518.517883 
	C374.956818,554.657471 374.908234,590.797119 374.059845,626.987976 
	C373.233704,626.916138 372.367523,626.981018 371.587280,626.752502 
	C350.536224,620.588013 331.406158,610.844238 314.314331,596.944275 
	C289.529419,576.787964 277.143524,550.588623 277.102203,519.023621 
	C276.882446,351.070618 276.998688,183.117188 276.998596,15.163919 
	C276.998596,12.910616 276.998596,10.657311 276.998596,8.380422 
	C246.936081,8.380422 217.709656,8.380422 188.000000,8.380422 
	C188.000000,11.056468 188.000000,13.355284 188.000000,15.654099 
	C188.000000,180.608200 187.959335,345.562317 188.084961,510.516327 
	C188.094025,522.417664 188.954666,534.351562 190.055298,546.211365 
	C191.812469,565.145691 197.434387,583.129150 205.675735,600.169922 
	C216.892426,623.362854 232.222565,643.425354 251.762360,660.467285 
	C272.055725,678.166321 294.324921,692.470825 319.045532,702.981506 
	C336.955780,710.596619 355.644562,715.289246 375.004852,717.942139 
	C375.003540,754.593872 374.658997,791.250916 375.227386,827.893799 
	C375.381378,837.820984 377.905640,847.789856 380.029633,857.590515 
	C383.675934,874.415039 390.332458,890.219177 399.493774,904.691040 
	C407.362213,917.120483 415.714417,929.455261 425.419495,940.448792 
	C434.401947,950.623779 445.028839,959.509766 455.703339,967.992126 
	C474.116058,982.623718 495.267426,992.216919 518.008301,997.852844 
	C530.709290,1001.000549 543.729187,1003.015259 556.704041,1004.838562 
	C562.994934,1005.722534 569.512878,1004.991211 575.635132,1004.991211 
	C575.635132,975.542419 575.635132,946.812622 575.635132,918.998718 
	C565.448730,917.622803 555.630249,916.865845 546.065979,914.882935 
	C527.735718,911.082642 511.973328,902.370789 498.492432,889.153748 
	C486.064240,876.968872 476.961243,862.726196 470.473541,846.806396 
	C466.235840,836.407776 463.845520,825.530884 463.917236,814.076172 
	C464.121613,781.425659 463.937408,748.772766 464.368073,715.470459 
	C507.607147,707.409973 545.327881,687.938599 578.155029,659.117737 
	C596.615540,642.910217 610.933167,623.343872 621.198792,600.774353 
	C632.062500,576.889771 637.501160,551.791199 637.827393,525.835266 
	C638.430054,477.878174 638.002930,429.908112 638.842224,381.994873 
	C646.221619,384.152679 654.030457,385.401031 660.897705,388.643555 
	C679.429321,397.393677 695.147766,409.934998 707.186218,426.719543 
	C719.303223,443.613556 726.778320,462.251526 728.015137,483.188446 
	C728.420776,490.055420 728.996704,496.912354 729.496216,503.794067 
	C757.564331,496.443207 785.691284,489.076904 814.839172,481.443237 
	C813.460693,469.696533 812.843445,457.878754 810.548218,446.396423 
	C807.006226,428.676727 800.685669,411.873230 791.667297,396.036011 
	C782.997681,380.811310 772.550781,366.998413 760.670044,354.261292 
	C747.002197,339.608276 731.512207,327.093506 714.286438,316.805481 
	C696.040955,305.908508 676.827637,297.458466 655.678101,293.987183 
	C649.787109,293.020294 643.913879,291.945343 638.009583,289.992981 
	C638.009583,196.126968 638.009583,102.260963 638.009583,8.382298 
	C608.256531,8.382298 579.368225,8.382298 549.998535,8.382298 
	C549.998535,103.181381 549.998535,197.597549 549.116516,292.001709 
M871.571960,573.047485 
	C869.318542,570.825806 867.288269,568.304749 864.774963,566.431824 
	C850.148499,555.531738 834.211487,547.499390 816.217957,543.519714 
	C800.173645,539.971130 783.931946,539.480896 768.062683,542.317993 
	C741.052917,547.146729 717.782349,559.398743 699.588562,580.763428 
	C678.408569,605.634705 670.947998,634.267273 676.257263,665.900024 
	C680.788330,692.896179 695.504211,714.677063 717.454224,730.506287 
	C746.958008,751.782776 780.135315,758.934570 815.992432,750.960571 
	C845.039795,744.500916 868.898743,729.696594 885.917114,705.036804 
	C903.508301,679.547058 908.492554,651.373718 900.847290,621.410645 
	C896.089111,602.762512 886.523865,586.594666 871.571960,573.047485 
M813.705750,817.200745 
	C813.178040,816.816589 812.701721,816.221619 812.115234,816.078613 
	C791.436951,811.038330 770.756409,806.005981 750.056213,801.056580 
	C743.546814,799.500122 736.980286,798.182312 730.330872,796.731506 
	C729.502380,804.435547 728.886719,811.434570 727.964417,818.393066 
	C726.961914,825.956543 726.317749,833.651611 724.386780,840.991821 
	C719.183533,860.770447 709.367065,877.785461 692.942810,890.609863 
	C680.896912,900.015564 668.399231,908.740051 653.535034,912.841492 
	C643.953247,915.485474 633.965027,916.656860 624.338745,918.454651 
	C624.338745,947.384644 624.338745,976.118896 624.338745,1005.476746 
	C632.106323,1004.969604 639.593201,1005.045105 646.879944,1003.874756 
	C658.182800,1002.059387 669.510437,999.984863 680.540894,996.971191 
	C705.658325,990.108765 727.381104,976.662231 746.674011,959.596252 
	C764.783936,943.576843 780.387573,925.237000 792.019592,903.812744 
	C806.539062,877.070679 813.906555,848.497192 813.705750,817.200745 
z"/>
<path fill="#494949" opacity="1.000000" stroke="none" 
	d="
M375.054962,717.006836 
	C355.644562,715.289246 336.955780,710.596619 319.045532,702.981506 
	C294.324921,692.470825 272.055725,678.166321 251.762360,660.467285 
	C232.222565,643.425354 216.892426,623.362854 205.675735,600.169922 
	C197.434387,583.129150 191.812469,565.145691 190.055298,546.211365 
	C188.954666,534.351562 188.094025,522.417664 188.084961,510.516327 
	C187.959335,345.562317 188.000000,180.608200 188.000000,15.654099 
	C188.000000,13.355284 188.000000,11.056468 188.000000,8.380422 
	C217.709656,8.380422 246.936081,8.380422 276.998596,8.380422 
	C276.998596,10.657311 276.998596,12.910616 276.998596,15.163919 
	C276.998688,183.117188 276.882446,351.070618 277.102203,519.023621 
	C277.143524,550.588623 289.529419,576.787964 314.314331,596.944275 
	C331.406158,610.844238 350.536224,620.588013 371.587280,626.752502 
	C372.367523,626.981018 373.233704,626.916138 374.544586,627.375122 
	C379.284180,628.789673 383.539032,629.817139 387.811523,630.848877 
	C387.811523,659.343079 387.811523,688.017578 387.811523,717.006836 
	C383.326050,717.006836 379.190521,717.006836 375.054962,717.006836 
z"/>
<path fill="#494949" opacity="1.000000" stroke="none" 
	d="
M638.004822,381.943481 
	C638.002930,429.908112 638.430054,477.878174 637.827393,525.835266 
	C637.501160,551.791199 632.062500,576.889771 621.198792,600.774353 
	C610.933167,623.343872 596.615540,642.910217 578.155029,659.117737 
	C545.327881,687.938599 507.607147,707.409973 463.687805,715.745178 
	C454.992188,716.404846 446.976837,716.789856 438.892639,717.178101 
	C438.892639,687.717957 438.892639,659.050049 438.892639,631.271912 
	C447.598846,629.090088 455.772308,627.041748 464.323547,624.966064 
	C485.483093,617.566467 503.568268,606.118530 519.235901,590.466431 
	C540.100281,569.622681 549.612610,544.232056 549.887207,515.346924 
	C550.312988,470.556763 549.997192,425.759491 550.019470,380.499268 
	C550.028259,350.693451 550.013367,321.353577 549.998535,292.013733 
	C549.998535,197.597549 549.998535,103.181381 549.998535,8.382298 
	C579.368225,8.382298 608.256531,8.382298 638.009583,8.382298 
	C638.009583,102.260963 638.009583,196.126968 637.807129,290.811829 
	C637.554749,320.593658 637.498535,349.556641 637.478577,378.519684 
	C637.477783,379.660797 637.821533,380.802216 638.004822,381.943481 
z"/>
<path fill="#DFDFDF" opacity="1.000000" stroke="none" 
	d="
M549.557495,292.007721 
	C550.013367,321.353577 550.028259,350.693451 549.647400,380.626709 
	C542.149658,383.656616 534.808533,385.562103 527.991882,388.632111 
	C509.658569,396.888794 494.615967,409.444794 482.859772,425.724854 
	C471.040527,442.092194 463.919525,460.138000 463.962280,480.715820 
	C464.062164,528.808105 463.963806,576.900818 463.945740,624.993408 
	C455.772308,627.041748 447.598846,629.090088 438.892639,631.271912 
	C438.892639,659.050049 438.892639,687.717957 438.892639,717.178101 
	C446.976837,716.789856 454.992188,716.404846 463.456848,716.070312 
	C463.937408,748.772766 464.121613,781.425659 463.917236,814.076172 
	C463.845520,825.530884 466.235840,836.407776 470.473541,846.806396 
	C476.961243,862.726196 486.064240,876.968872 498.492432,889.153748 
	C511.973328,902.370789 527.735718,911.082642 546.065979,914.882935 
	C555.630249,916.865845 565.448730,917.622803 575.635132,918.998718 
	C575.635132,946.812622 575.635132,975.542419 575.635132,1004.991211 
	C569.512878,1004.991211 562.994934,1005.722534 556.704041,1004.838562 
	C543.729187,1003.015259 530.709290,1001.000549 518.008301,997.852844 
	C495.267426,992.216919 474.116058,982.623718 455.703339,967.992126 
	C445.028839,959.509766 434.401947,950.623779 425.419495,940.448792 
	C415.714417,929.455261 407.362213,917.120483 399.493774,904.691040 
	C390.332458,890.219177 383.675934,874.415039 380.029633,857.590515 
	C377.905640,847.789856 375.381378,837.820984 375.227386,827.893799 
	C374.658997,791.250916 375.003540,754.593872 375.029907,717.474487 
	C379.190521,717.006836 383.326050,717.006836 387.811523,717.006836 
	C387.811523,688.017578 387.811523,659.343079 387.811523,630.848877 
	C383.539032,629.817139 379.284180,628.789673 374.945862,627.349487 
	C374.908234,590.797119 374.956818,554.657471 374.998260,518.517883 
	C375.009705,508.524567 375.350159,498.516510 374.929688,488.540924 
	C373.946655,465.219574 377.817993,442.783264 386.418945,421.148010 
	C395.239471,398.960358 407.074951,378.525452 421.742981,359.639435 
	C433.843201,344.059570 448.088593,330.870087 464.558472,320.219421 
	C482.545471,308.587708 502.078949,300.275787 523.164246,296.061951 
	C531.742859,294.347504 540.461548,293.334076 549.557495,292.007721 
z"/>
<path fill="#C586A5" opacity="1.000000" stroke="none" 
	d="
M871.823486,573.308411 
	C886.523865,586.594666 896.089111,602.762512 900.847290,621.410645 
	C908.492554,651.373718 903.508301,679.547058 885.917114,705.036804 
	C868.898743,729.696594 845.039795,744.500916 815.992432,750.960571 
	C780.135315,758.934570 746.958008,751.782776 717.454224,730.506287 
	C695.504211,714.677063 680.788330,692.896179 676.257263,665.900024 
	C670.947998,634.267273 678.408569,605.634705 699.588562,580.763428 
	C717.782349,559.398743 741.052917,547.146729 768.062683,542.317993 
	C783.931946,539.480896 800.173645,539.971130 816.217957,543.519714 
	C834.211487,547.499390 850.148499,555.531738 864.774963,566.431824 
	C867.288269,568.304749 869.318542,570.825806 871.823486,573.308411 
z"/>
<path fill="#DFDFDF" opacity="1.000000" stroke="none" 
	d="
M813.839111,817.627808 
	C813.906555,848.497192 806.539062,877.070679 792.019592,903.812744 
	C780.387573,925.237000 764.783936,943.576843 746.674011,959.596252 
	C727.381104,976.662231 705.658325,990.108765 680.540894,996.971191 
	C669.510437,999.984863 658.182800,1002.059387 646.879944,1003.874756 
	C639.593201,1005.045105 632.106323,1004.969604 624.338745,1005.476746 
	C624.338745,976.118896 624.338745,947.384644 624.338745,918.454651 
	C633.965027,916.656860 643.953247,915.485474 653.535034,912.841492 
	C668.399231,908.740051 680.896912,900.015564 692.942810,890.609863 
	C709.367065,877.785461 719.183533,860.770447 724.386780,840.991821 
	C726.317749,833.651611 726.961914,825.956543 727.964417,818.393066 
	C728.886719,811.434570 729.502380,804.435547 730.330872,796.731506 
	C736.980286,798.182312 743.546814,799.500122 750.056213,801.056580 
	C770.756409,806.005981 791.436951,811.038330 812.115234,816.078613 
	C812.701721,816.221619 813.178040,816.816589 813.839111,817.627808 
z"/>
<path fill="#DFDFDF" opacity="1.000000" stroke="none" 
	d="
M638.423523,381.969177 
	C637.821533,380.802216 637.477783,379.660797 637.478577,378.519684 
	C637.498535,349.556641 637.554749,320.593658 637.818542,291.275299 
	C643.913879,291.945343 649.787109,293.020294 655.678101,293.987183 
	C676.827637,297.458466 696.040955,305.908508 714.286438,316.805481 
	C731.512207,327.093506 747.002197,339.608276 760.670044,354.261292 
	C772.550781,366.998413 782.997681,380.811310 791.667297,396.036011 
	C800.685669,411.873230 807.006226,428.676727 810.548218,446.396423 
	C812.843445,457.878754 813.460693,469.696533 814.839172,481.443237 
	C785.691284,489.076904 757.564331,496.443207 729.496216,503.794067 
	C728.996704,496.912354 728.420776,490.055420 728.015137,483.188446 
	C726.778320,462.251526 719.303223,443.613556 707.186218,426.719543 
	C695.147766,409.934998 679.429321,397.393677 660.897705,388.643555 
	C654.030457,385.401031 646.221619,384.152679 638.423523,381.969177 
z"/>
<path fill="#000000" opacity="1.000000" stroke="none" 
	d="
M464.323547,624.966064 
	C463.963806,576.900818 464.062164,528.808105 463.962280,480.715820 
	C463.919525,460.138000 471.040527,442.092194 482.859772,425.724854 
	C494.615967,409.444794 509.658569,396.888794 527.991882,388.632111 
	C534.808533,385.562103 542.149658,383.656616 549.623718,381.092651 
	C549.997192,425.759491 550.312988,470.556763 549.887207,515.346924 
	C549.612610,544.232056 540.100281,569.622681 519.235901,590.466431 
	C503.568268,606.118530 485.483093,617.566467 464.323547,624.966064 
z"/>
</svg>