<svg version="1.1" id="Layer_1" xmlns="http://www.w3.org/2000/svg" xmlns:xlink="http://www.w3.org/1999/xlink" x="0px" y="0px"
	 width="100%" viewBox="0 0 808 1416" enable-background="new 0 0 808 1416" xml:space="preserve">
<path fill="#F7F7F7" opacity="1.000000" stroke="none" 
	d="
M809.000000,827.000000 
	C809.000000,1023.648376 809.000000,1220.296753 809.000000,1416.972656 
	C539.710022,1416.972656 270.419983,1416.972656 1.064995,1416.972656 
	C1.064995,945.087219 1.064995,473.174438 1.064995,1.130828 
	C270.221008,1.130828 539.442139,1.130828 809.000000,1.130828 
	C809.000000,271.029297 809.000000,541.058716 808.691345,811.282959 
	C807.455688,798.710999 804.308350,786.421082 798.397949,775.160400 
	C777.048767,734.485535 742.050903,715.319641 697.216980,713.183105 
	C674.848877,712.117188 653.646057,717.748352 634.132141,728.948486 
	C594.997803,751.410034 574.616394,792.425049 581.356750,834.681458 
	C586.738525,868.420715 605.633545,893.421692 635.185852,909.984497 
	C665.459351,926.951599 697.805786,930.091187 730.733948,919.695374 
	C770.525391,907.132935 796.588013,880.681152 806.632141,839.539490 
	C807.639526,835.412964 808.220947,831.182312 809.000000,827.000000 
M487.486450,554.023865 
	C502.972656,556.263550 516.397034,563.145325 529.104736,571.962280 
	C545.704346,583.479553 558.268677,598.399963 567.574341,616.167969 
	C575.345337,631.005737 578.079956,647.117371 578.970886,663.625366 
	C579.183533,667.565735 579.002441,671.527405 579.002441,675.626343 
	C580.296082,675.626343 580.970825,675.760559 581.571594,675.606384 
	C591.361328,673.093689 601.144409,670.555420 610.923401,668.001160 
	C627.287781,663.727051 643.668579,659.511902 659.977173,655.034302 
	C661.532410,654.607239 663.827759,652.416138 663.742126,651.185852 
	C663.122131,642.283081 662.396729,633.346436 660.921387,624.552002 
	C656.402588,597.615662 645.797180,573.252197 629.776855,551.072754 
	C618.594299,535.590881 605.329407,522.218811 591.142578,509.588287 
	C576.356873,496.424744 559.719177,486.063660 541.699158,478.277222 
	C524.142273,470.690857 505.718658,465.560944 486.453979,463.988892 
	C486.453979,347.884308 486.453979,231.779694 486.453979,115.428551 
	C457.218079,115.428551 428.327850,115.428551 399.006226,115.428551 
	C399.006226,232.132019 399.006226,348.565338 398.193237,465.114807 
	C392.957947,465.857117 387.675690,466.361420 382.495667,467.383667 
	C362.227203,471.383606 342.700104,477.525055 324.570312,487.697388 
	C311.622955,494.961884 299.442474,503.400574 288.977600,513.841614 
	C273.766083,529.018555 260.365875,545.860291 250.734497,565.139893 
	C243.407700,579.806274 236.614822,594.900085 231.386765,610.411194 
	C225.586823,627.619019 224.815750,645.833130 224.962692,664.005127 
	C225.154007,687.666199 225.004501,711.329895 224.236633,734.894836 
	C214.995270,731.645142 205.519058,728.934937 196.560760,725.034973 
	C177.062332,716.546509 159.841782,704.577026 146.584671,687.788757 
	C131.678513,668.912170 125.725044,647.070312 125.751045,623.042419 
	C125.931572,456.260834 125.844116,289.478912 125.842628,122.697098 
	C125.842606,120.267326 125.842628,117.837563 125.842628,115.455414 
	C95.946411,115.455414 66.707985,115.455414 37.160984,115.455414 
	C37.160984,117.556320 37.160995,119.361740 37.160984,121.167168 
	C37.160000,284.116760 37.142170,447.066376 37.197193,610.015991 
	C37.200737,620.503784 37.340469,631.024353 38.147507,641.473267 
	C41.086830,679.529297 54.172722,713.702026 78.266487,743.464111 
	C93.729713,762.565247 112.497322,777.933105 133.139618,791.051575 
	C161.212875,808.892578 191.425964,820.854614 224.950928,824.601318 
	C224.970657,826.433594 224.998611,828.265808 225.008957,830.098145 
	C225.335892,888.033020 225.341461,945.973022 226.263382,1003.898438 
	C226.442139,1015.130615 229.391647,1026.533447 232.486359,1037.454224 
	C237.162704,1053.956421 244.304916,1069.584961 254.024872,1083.797729 
	C260.939606,1093.908813 267.681915,1104.377930 276.090729,1113.166382 
	C286.595459,1124.145386 298.273071,1134.157715 310.320709,1143.451172 
	C318.639557,1149.868286 328.074768,1155.171509 337.666687,1159.529663 
	C353.525391,1166.735229 370.143951,1172.132202 387.482819,1174.573975 
	C398.614166,1176.141479 409.861908,1176.882446 421.057617,1177.992432 
	C423.646454,1178.249146 425.057098,1177.497192 425.048370,1174.471069 
	C424.971466,1147.817017 424.982880,1121.162476 425.035431,1094.508301 
	C425.040497,1091.931763 424.057922,1091.127808 421.516510,1090.956665 
	C414.423523,1090.478638 407.314728,1089.947632 400.279236,1088.959839 
	C381.298004,1086.295166 365.069702,1077.541504 350.807465,1065.172485 
	C336.564545,1052.820190 327.208069,1036.844727 320.071411,1019.695679 
	C317.053680,1012.444214 314.326569,1004.401428 314.265900,996.696289 
	C313.806946,938.394104 314.043274,880.086487 314.835632,821.703918 
	C316.936310,821.275574 319.044342,820.880127 321.136658,820.414124 
	C360.492432,811.648499 394.983856,793.225830 425.200134,766.884827 
	C465.405518,731.835999 484.684967,686.807556 486.139343,633.983582 
	C486.872345,607.360535 486.494690,580.706848 487.486450,554.023865 
M637.566223,1083.032837 
	C641.441040,1075.546265 645.823914,1068.274170 649.093018,1060.531860 
	C658.005859,1039.423096 663.262268,1017.460449 663.058655,994.367310 
	C663.029541,991.065063 662.318604,989.621704 658.592651,988.766418 
	C637.766052,983.985535 617.053772,978.708130 596.293579,973.636353 
	C591.093750,972.366028 585.861633,971.227905 580.684326,970.038208 
	C579.398682,981.464478 578.292236,992.145325 576.972351,1002.799622 
	C575.550354,1014.278564 571.899292,1025.141846 566.699341,1035.399170 
	C559.395142,1049.807495 548.179871,1060.608521 534.981262,1069.814575 
	C519.157532,1080.851807 502.379639,1088.695068 482.857605,1090.134888 
	C474.010773,1090.787354 473.699677,1091.663696 474.877808,1100.643066 
	C475.071533,1102.119507 474.973267,1103.637329 474.973602,1105.135986 
	C474.978302,1127.297852 474.975128,1149.459839 474.977997,1171.621704 
	C474.978821,1178.007202 475.026581,1178.474121 481.573853,1177.889893 
	C491.940308,1176.964966 502.283295,1175.588013 512.567017,1173.964111 
	C532.887268,1170.755493 551.458923,1162.598633 568.967102,1152.235474 
	C585.779663,1142.284180 600.606384,1129.572266 613.411804,1114.854858 
	C621.974487,1105.014038 629.297974,1094.094971 637.566223,1083.032837 
z"/>
<path fill="#C586A5" opacity="1.000000" stroke="none" 
	d="
M809.000000,826.533875 
	C808.220947,831.182312 807.639526,835.412964 806.632141,839.539490 
	C796.588013,880.681152 770.525391,907.132935 730.733948,919.695374 
	C697.805786,930.091187 665.459351,926.951599 635.185852,909.984497 
	C605.633545,893.421692 586.738525,868.420715 581.356750,834.681458 
	C574.616394,792.425049 594.997803,751.410034 634.132141,728.948486 
	C653.646057,717.748352 674.848877,712.117188 697.216980,713.183105 
	C742.050903,715.319641 777.048767,734.485535 798.397949,775.160400 
	C804.308350,786.421082 807.455688,798.710999 808.691345,811.738892 
	C809.000000,816.689270 809.000000,821.378479 809.000000,826.533875 
z"/>
<path fill="#DFDFDF" opacity="1.000000" stroke="none" 
	d="
M225.001648,734.992493 
	C225.004501,711.329895 225.154007,687.666199 224.962692,664.005127 
	C224.815750,645.833130 225.586823,627.619019 231.386765,610.411194 
	C236.614822,594.900085 243.407700,579.806274 250.734497,565.139893 
	C260.365875,545.860291 273.766083,529.018555 288.977600,513.841614 
	C299.442474,503.400574 311.622955,494.961884 324.570312,487.697388 
	C342.700104,477.525055 362.227203,471.383606 382.495667,467.383667 
	C387.675690,466.361420 392.957947,465.857117 399.057434,465.138641 
	C408.168060,464.798462 416.414520,464.434448 424.808105,464.063965 
	C424.808105,493.255096 424.808105,521.745911 424.808105,549.830444 
	C415.922058,551.262207 407.446594,552.627747 398.579224,554.044922 
	C392.836212,555.716187 387.285034,556.864441 382.168182,559.036133 
	C358.414337,569.117798 339.426697,584.894470 326.430786,607.376404 
	C319.649384,619.107727 314.346161,631.640930 314.138000,645.326965 
	C313.697845,674.266235 314.028656,703.217346 313.995331,732.620117 
	C313.985809,762.644653 314.024231,792.212585 314.062653,821.780518 
	C314.043274,880.086487 313.806946,938.394104 314.265900,996.696289 
	C314.326569,1004.401428 317.053680,1012.444214 320.071411,1019.695679 
	C327.208069,1036.844727 336.564545,1052.820190 350.807465,1065.172485 
	C365.069702,1077.541504 381.298004,1086.295166 400.279236,1088.959839 
	C407.314728,1089.947632 414.423523,1090.478638 421.516510,1090.956665 
	C424.057922,1091.127808 425.040497,1091.931763 425.035431,1094.508301 
	C424.982880,1121.162476 424.971466,1147.817017 425.048370,1174.471069 
	C425.057098,1177.497192 423.646454,1178.249146 421.057617,1177.992432 
	C409.861908,1176.882446 398.614166,1176.141479 387.482819,1174.573975 
	C370.143951,1172.132202 353.525391,1166.735229 337.666687,1159.529663 
	C328.074768,1155.171509 318.639557,1149.868286 310.320709,1143.451172 
	C298.273071,1134.157715 286.595459,1124.145386 276.090729,1113.166382 
	C267.681915,1104.377930 260.939606,1093.908813 254.024872,1083.797729 
	C244.304916,1069.584961 237.162704,1053.956421 232.486359,1037.454224 
	C229.391647,1026.533447 226.442139,1015.130615 226.263382,1003.898438 
	C225.341461,945.973022 225.335892,888.033020 225.008957,830.098145 
	C224.998611,828.265808 224.970657,826.433594 224.994446,823.673462 
	C225.025879,793.494568 225.013763,764.243530 225.001648,734.992493 
z"/>
<path fill="#4A4A4A" opacity="1.000000" stroke="none" 
	d="
M224.619141,734.943665 
	C225.013763,764.243530 225.025879,793.494568 224.957672,823.182129 
	C191.425964,820.854614 161.212875,808.892578 133.139618,791.051575 
	C112.497322,777.933105 93.729713,762.565247 78.266487,743.464111 
	C54.172722,713.702026 41.086830,679.529297 38.147507,641.473267 
	C37.340469,631.024353 37.200737,620.503784 37.197193,610.015991 
	C37.142170,447.066376 37.160000,284.116760 37.160984,121.167168 
	C37.160995,119.361740 37.160984,117.556320 37.160984,115.455414 
	C66.707985,115.455414 95.946411,115.455414 125.842628,115.455414 
	C125.842628,117.837563 125.842606,120.267326 125.842628,122.697098 
	C125.844116,289.478912 125.931572,456.260834 125.751045,623.042419 
	C125.725044,647.070312 131.678513,668.912170 146.584671,687.788757 
	C159.841782,704.577026 177.062332,716.546509 196.560760,725.034973 
	C205.519058,728.934937 214.995270,731.645142 224.619141,734.943665 
z"/>
<path fill="#494949" opacity="1.000000" stroke="none" 
	d="
M398.971130,553.993347 
	C407.446594,552.627747 415.922058,551.262207 424.808105,549.830444 
	C424.808105,521.745911 424.808105,493.255096 424.808105,464.063965 
	C416.414520,464.434448 408.168060,464.798462 399.463928,465.080566 
	C399.006226,348.565338 399.006226,232.132019 399.006226,115.428551 
	C428.327850,115.428551 457.218079,115.428551 486.453979,115.428551 
	C486.453979,231.779694 486.453979,347.884308 486.031891,464.395599 
	C482.025085,464.617767 478.440338,464.433228 474.626831,464.236938 
	C474.626831,493.281860 474.626831,521.822632 474.626831,550.285278 
	C478.767609,551.591003 482.693451,552.828979 486.619293,554.067017 
	C486.494690,580.706848 486.872345,607.360535 486.139343,633.983582 
	C484.684967,686.807556 465.405518,731.835999 425.200134,766.884827 
	C394.983856,793.225830 360.492432,811.648499 321.136658,820.414124 
	C319.044342,820.880127 316.936310,821.275574 314.449158,821.742188 
	C314.024231,792.212585 313.985809,762.644653 314.365265,732.554443 
	C325.305695,726.739075 336.427979,722.368042 346.241547,715.984924 
	C379.370575,694.436890 398.549774,664.408020 398.953735,623.979736 
	C399.186829,600.653198 398.979950,577.322266 398.971130,553.993347 
z"/>
<path fill="#DDDDDD" opacity="1.000000" stroke="none" 
	d="
M487.052856,554.045410 
	C482.693451,552.828979 478.767609,551.591003 474.626831,550.285278 
	C474.626831,521.822632 474.626831,493.281860 474.626831,464.236938 
	C478.440338,464.433228 482.025085,464.617767 485.989746,464.794342 
	C505.718658,465.560944 524.142273,470.690857 541.699158,478.277222 
	C559.719177,486.063660 576.356873,496.424744 591.142578,509.588287 
	C605.329407,522.218811 618.594299,535.590881 629.776855,551.072754 
	C645.797180,573.252197 656.402588,597.615662 660.921387,624.552002 
	C662.396729,633.346436 663.122131,642.283081 663.742126,651.185852 
	C663.827759,652.416138 661.532410,654.607239 659.977173,655.034302 
	C643.668579,659.511902 627.287781,663.727051 610.923401,668.001160 
	C601.144409,670.555420 591.361328,673.093689 581.571594,675.606384 
	C580.970825,675.760559 580.296082,675.626343 579.002441,675.626343 
	C579.002441,671.527405 579.183533,667.565735 578.970886,663.625366 
	C578.079956,647.117371 575.345337,631.005737 567.574341,616.167969 
	C558.268677,598.399963 545.704346,583.479553 529.104736,571.962280 
	C516.397034,563.145325 502.972656,556.263550 487.052856,554.045410 
z"/>
<path fill="#DFDFDF" opacity="1.000000" stroke="none" 
	d="
M637.371094,1083.345703 
	C629.297974,1094.094971 621.974487,1105.014038 613.411804,1114.854858 
	C600.606384,1129.572266 585.779663,1142.284180 568.967102,1152.235474 
	C551.458923,1162.598633 532.887268,1170.755493 512.567017,1173.964111 
	C502.283295,1175.588013 491.940308,1176.964966 481.573853,1177.889893 
	C475.026581,1178.474121 474.978821,1178.007202 474.977997,1171.621704 
	C474.975128,1149.459839 474.978302,1127.297852 474.973602,1105.135986 
	C474.973267,1103.637329 475.071533,1102.119507 474.877808,1100.643066 
	C473.699677,1091.663696 474.010773,1090.787354 482.857605,1090.134888 
	C502.379639,1088.695068 519.157532,1080.851807 534.981262,1069.814575 
	C548.179871,1060.608521 559.395142,1049.807495 566.699341,1035.399170 
	C571.899292,1025.141846 575.550354,1014.278564 576.972351,1002.799622 
	C578.292236,992.145325 579.398682,981.464478 580.684326,970.038208 
	C585.861633,971.227905 591.093750,972.366028 596.293579,973.636353 
	C617.053772,978.708130 637.766052,983.985535 658.592651,988.766418 
	C662.318604,989.621704 663.029541,991.065063 663.058655,994.367310 
	C663.262268,1017.460449 658.005859,1039.423096 649.093018,1060.531860 
	C645.823914,1068.274170 641.441040,1075.546265 637.371094,1083.345703 
z"/>
<path fill="#F7F7F7" opacity="1.000000" stroke="none" 
	d="
M398.579224,554.044922 
	C398.979950,577.322266 399.186829,600.653198 398.953735,623.979736 
	C398.549774,664.408020 379.370575,694.436890 346.241547,715.984924 
	C336.427979,722.368042 325.305695,726.739075 314.413208,732.097900 
	C314.028656,703.217346 313.697845,674.266235 314.138000,645.326965 
	C314.346161,631.640930 319.649384,619.107727 326.430786,607.376404 
	C339.426697,584.894470 358.414337,569.117798 382.168182,559.036133 
	C387.285034,556.864441 392.836212,555.716187 398.579224,554.044922 
z"/>
</svg>