<svg version="1.1" id="Layer_1" xmlns="http://www.w3.org/2000/svg" xmlns:xlink="http://www.w3.org/1999/xlink" x="0px" y="0px"
	 width="100%" viewBox="0 0 1080 1080" enable-background="new 0 0 1080 1080" xml:space="preserve">
<path fill="#F7F7F7" opacity="1.000000" stroke="none" 
	d="
M603.000000,1081.000000 
	C402.023132,1081.000000 201.546280,1081.000000 1.034705,1081.000000 
	C1.034705,721.064697 1.034705,361.129364 1.034705,1.097018 
	C360.893768,1.097018 720.787598,1.097018 1080.840698,1.097018 
	C1080.840698,360.999939 1080.840698,720.999939 1080.840698,1081.000000 
	C921.795593,1081.000000 762.647766,1081.000000 603.000000,1081.000000 
M638.661865,381.075775 
	C649.776672,382.955261 659.912537,387.342346 669.698975,392.810852 
	C683.519531,400.533661 695.135315,410.867889 704.951111,423.087769 
	C722.192932,444.552307 729.341675,469.503296 729.003479,496.803558 
	C728.979675,498.724762 729.000305,500.646484 729.000305,502.847290 
	C730.789307,502.723511 731.788818,502.806915 732.704590,502.568726 
	C757.241272,496.186371 781.786499,489.835266 806.289734,483.326538 
	C814.895203,481.040710 814.836060,480.859833 813.231445,472.183533 
	C813.051208,471.209137 813.029968,470.198364 813.007751,469.202789 
	C812.667480,453.970032 809.160767,439.288666 804.341492,425.002136 
	C795.941956,400.101593 781.991638,378.313263 764.356201,359.028503 
	C742.613159,335.252075 717.609619,315.804932 687.374023,303.665558 
	C671.427734,297.263214 655.046204,292.994507 637.609985,291.120911 
	C637.609985,197.020676 637.609985,102.920456 637.609985,8.668066 
	C608.045471,8.668066 579.175110,8.668066 550.070435,8.668066 
	C550.070435,11.040024 550.070435,13.031980 550.070435,15.023935 
	C550.070435,105.347252 550.071472,195.670578 550.063416,285.993896 
	C550.063232,287.989838 549.959229,289.985809 549.084961,292.031708 
	C541.760193,293.335724 534.443909,294.689453 527.109192,295.934753 
	C501.225983,300.329346 477.758270,310.730286 456.742798,326.088104 
	C438.114777,339.701263 422.511261,356.642761 410.378967,376.308594 
	C402.557678,388.986511 395.582031,402.273865 389.275970,415.777740 
	C380.349609,434.892853 375.359589,455.319336 375.160187,476.393616 
	C374.682556,526.873657 374.985352,577.361145 374.208374,627.880859 
	C373.248291,627.613037 372.285706,627.353821 371.328491,627.076111 
	C346.630463,619.911560 324.360718,608.231934 305.934784,590.171326 
	C285.465302,570.107727 276.644440,545.233093 276.665039,516.693787 
	C276.785675,349.529694 276.724274,182.365479 276.724274,15.201296 
	C276.724274,13.088923 276.724274,10.976550 276.724274,8.647161 
	C246.900146,8.647161 217.689880,8.647161 188.157745,8.647161 
	C188.157745,10.320227 188.157745,11.634702 188.157761,12.949176 
	C188.158691,182.113312 188.032562,351.277649 188.273087,520.441406 
	C188.318527,552.390015 195.735138,582.855713 211.826279,610.732178 
	C237.989334,656.057251 277.561707,685.459412 325.224335,704.974487 
	C341.186737,711.510193 358.008087,714.682068 375.027435,717.794495 
	C375.350677,755.896667 375.350586,794.005493 376.127563,832.098389 
	C376.543365,852.482666 383.228577,871.591125 392.037506,889.708374 
	C404.096466,914.509827 419.988800,936.596008 440.587982,955.290161 
	C452.755859,966.332825 466.078583,975.523743 480.484039,983.103516 
	C498.963409,992.826965 518.700195,999.144165 539.427856,1001.924927 
	C549.911316,1003.331299 560.494141,1003.997986 571.032410,1004.995056 
	C573.586304,1005.236633 575.060486,1004.557556 575.051575,1001.500305 
	C574.974548,975.017883 574.995911,948.535156 575.026672,922.052490 
	C575.029724,919.386169 573.968811,918.190186 571.216858,917.984253 
	C564.128723,917.453979 557.005554,917.030273 549.990723,915.950806 
	C531.134583,913.049011 514.745850,904.780823 500.608307,892.075378 
	C487.129456,879.961853 477.604797,864.982910 470.897217,848.356873 
	C467.708679,840.453369 464.468170,831.889221 464.305298,823.564575 
	C463.598297,787.435791 464.016785,751.284973 464.809082,714.923401 
	C489.967957,710.496155 513.344666,701.224976 535.500854,688.728149 
	C570.721802,668.862549 599.811279,642.820984 618.199707,606.094299 
	C631.721497,579.087708 637.382935,550.257568 637.511475,520.284302 
	C637.702148,475.831909 637.557983,431.378113 637.575500,386.924927 
	C637.576294,384.938080 637.766235,382.951324 638.661865,381.075775 
M734.466736,553.917847 
	C732.875977,554.823975 731.274719,555.712280 729.695984,556.638855 
	C698.036987,575.219604 678.763184,602.385010 675.351929,639.140015 
	C672.426086,670.665833 683.665833,697.934753 706.006775,720.010132 
	C728.833862,742.565796 757.193176,753.254700 789.065979,753.547485 
	C809.435059,753.734558 828.900452,748.845459 847.031616,739.031067 
	C883.544861,719.266357 908.030457,679.804321 903.115845,636.788147 
	C899.280396,603.217773 882.367676,577.522339 854.246643,559.932251 
	C816.065247,536.049255 775.955811,534.798523 734.466736,553.917847 
M730.000000,801.740845 
	C728.997742,811.279724 728.243713,820.852844 726.934509,830.349426 
	C725.008667,844.319397 720.494873,857.422241 712.822388,869.373352 
	C704.325806,882.608154 692.518860,892.087524 679.656677,900.907043 
	C664.186035,911.515137 647.033813,915.920105 628.938904,917.878296 
	C625.154358,918.287781 624.019714,919.830322 624.020691,923.148743 
	C624.028076,948.965698 624.050964,974.782654 623.990417,1000.599487 
	C623.982910,1003.800903 625.234924,1005.267944 628.441162,1004.996277 
	C637.840271,1004.199951 647.345032,1004.034668 656.616333,1002.478027 
	C674.178772,999.529358 690.845642,993.828979 706.899597,985.808167 
	C724.345276,977.091980 739.776367,965.730591 753.753418,952.485474 
	C769.103455,937.939392 781.921631,921.236938 792.040527,902.524658 
	C801.433838,885.154175 807.992004,866.843811 810.955322,847.331970 
	C812.170410,839.331482 812.260193,831.154053 813.599060,823.180908 
	C814.343079,818.750122 813.421448,816.928711 809.015259,815.916626 
	C794.489319,812.580383 780.055176,808.846558 765.561462,805.366882 
	C753.993835,802.589661 742.390686,799.960510 730.479492,797.190369 
	C730.287170,798.663879 730.143616,799.763428 730.000000,801.740845 
z"/>
<path fill="#4A4A4A" opacity="1.000000" stroke="none" 
	d="
M375.044159,716.832764 
	C358.008087,714.682068 341.186737,711.510193 325.224335,704.974487 
	C277.561707,685.459412 237.989334,656.057251 211.826279,610.732178 
	C195.735138,582.855713 188.318527,552.390015 188.273087,520.441406 
	C188.032562,351.277649 188.158691,182.113312 188.157761,12.949176 
	C188.157745,11.634702 188.157745,10.320227 188.157745,8.647161 
	C217.689880,8.647161 246.900146,8.647161 276.724274,8.647161 
	C276.724274,10.976550 276.724274,13.088923 276.724274,15.201296 
	C276.724274,182.365479 276.785675,349.529694 276.665039,516.693787 
	C276.644440,545.233093 285.465302,570.107727 305.934784,590.171326 
	C324.360718,608.231934 346.630463,619.911560 371.328491,627.076111 
	C372.285706,627.353821 373.248291,627.613037 374.990784,627.997131 
	C379.815735,628.719238 383.858215,629.325134 387.798340,629.915710 
	C387.798340,659.098694 387.798340,687.911926 387.798340,716.832764 
	C383.302704,716.832764 379.173431,716.832764 375.044159,716.832764 
z"/>
<path fill="#4A4A4A" opacity="1.000000" stroke="none" 
	d="
M549.903687,291.981750 
	C549.959229,289.985809 550.063232,287.989838 550.063416,285.993896 
	C550.071472,195.670578 550.070435,105.347252 550.070435,15.023935 
	C550.070435,13.031980 550.070435,11.040024 550.070435,8.668066 
	C579.175110,8.668066 608.045471,8.668066 637.609985,8.668066 
	C637.609985,102.920456 637.609985,197.020676 637.625488,292.035217 
	C637.623535,308.203857 637.563660,323.458313 637.601135,338.712555 
	C637.635803,352.796692 637.774902,366.880524 637.868042,380.964508 
	C637.766235,382.951324 637.576294,384.938080 637.575500,386.924927 
	C637.557983,431.378113 637.702148,475.831909 637.511475,520.284302 
	C637.382935,550.257568 631.721497,579.087708 618.199707,606.094299 
	C599.811279,642.820984 570.721802,668.862549 535.500854,688.728149 
	C513.344666,701.224976 489.967957,710.496155 464.001434,714.995667 
	C455.137970,715.869751 447.082123,716.671631 438.810699,717.494995 
	C438.810699,687.662415 438.810699,658.786560 438.810699,629.774048 
	C443.307922,629.338013 447.472351,629.181519 451.540253,628.471680 
	C455.773376,627.732910 459.913239,626.459778 464.480103,625.369019 
	C474.868317,620.516602 485.444458,616.627197 494.770844,610.753418 
	C531.389893,587.690857 551.290344,555.104614 550.153442,510.813690 
	C549.658203,491.521545 550.093933,472.206024 550.065186,452.901184 
	C550.029480,428.940857 549.950562,404.980621 549.965332,380.555664 
	C549.994751,350.721222 549.949219,321.351501 549.903687,291.981750 
z"/>
<path fill="#DFDFDF" opacity="1.000000" stroke="none" 
	d="
M464.093872,625.420227 
	C459.913239,626.459778 455.773376,627.732910 451.540253,628.471680 
	C447.472351,629.181519 443.307922,629.338013 438.810699,629.774048 
	C438.810699,658.786560 438.810699,687.662415 438.810699,717.494995 
	C447.082123,716.671631 455.137970,715.869751 463.609985,715.105042 
	C464.016785,751.284973 463.598297,787.435791 464.305298,823.564575 
	C464.468170,831.889221 467.708679,840.453369 470.897217,848.356873 
	C477.604797,864.982910 487.129456,879.961853 500.608307,892.075378 
	C514.745850,904.780823 531.134583,913.049011 549.990723,915.950806 
	C557.005554,917.030273 564.128723,917.453979 571.216858,917.984253 
	C573.968811,918.190186 575.029724,919.386169 575.026672,922.052490 
	C574.995911,948.535156 574.974548,975.017883 575.051575,1001.500305 
	C575.060486,1004.557556 573.586304,1005.236633 571.032410,1004.995056 
	C560.494141,1003.997986 549.911316,1003.331299 539.427856,1001.924927 
	C518.700195,999.144165 498.963409,992.826965 480.484039,983.103516 
	C466.078583,975.523743 452.755859,966.332825 440.587982,955.290161 
	C419.988800,936.596008 404.096466,914.509827 392.037506,889.708374 
	C383.228577,871.591125 376.543365,852.482666 376.127563,832.098389 
	C375.350586,794.005493 375.350677,755.896667 375.035797,717.313599 
	C379.173431,716.832764 383.302704,716.832764 387.798340,716.832764 
	C387.798340,687.911926 387.798340,659.098694 387.798340,629.915710 
	C383.858215,629.325134 379.815735,628.719238 375.373169,627.979492 
	C374.985352,577.361145 374.682556,526.873657 375.160187,476.393616 
	C375.359589,455.319336 380.349609,434.892853 389.275970,415.777740 
	C395.582031,402.273865 402.557678,388.986511 410.378967,376.308594 
	C422.511261,356.642761 438.114777,339.701263 456.742798,326.088104 
	C477.758270,310.730286 501.225983,300.329346 527.109192,295.934753 
	C534.443909,294.689453 541.760193,293.335724 549.494263,292.006714 
	C549.949219,321.351501 549.994751,350.721222 549.569092,380.549194 
	C532.215210,384.591339 517.344360,392.363220 503.735687,402.774597 
	C493.450500,410.643280 485.441162,420.601318 478.499939,431.341400 
	C470.602295,443.561371 464.317108,456.897827 464.188293,471.575806 
	C463.738281,522.853638 464.063324,574.138184 464.093872,625.420227 
z"/>
<path fill="#C586A5" opacity="1.000000" stroke="none" 
	d="
M734.802246,553.754150 
	C775.955811,534.798523 816.065247,536.049255 854.246643,559.932251 
	C882.367676,577.522339 899.280396,603.217773 903.115845,636.788147 
	C908.030457,679.804321 883.544861,719.266357 847.031616,739.031067 
	C828.900452,748.845459 809.435059,753.734558 789.065979,753.547485 
	C757.193176,753.254700 728.833862,742.565796 706.006775,720.010132 
	C683.665833,697.934753 672.426086,670.665833 675.351929,639.140015 
	C678.763184,602.385010 698.036987,575.219604 729.695984,556.638855 
	C731.274719,555.712280 732.875977,554.823975 734.802246,553.754150 
z"/>
<path fill="#DFDFDF" opacity="1.000000" stroke="none" 
	d="
M730.000000,801.301941 
	C730.143616,799.763428 730.287170,798.663879 730.479492,797.190369 
	C742.390686,799.960510 753.993835,802.589661 765.561462,805.366882 
	C780.055176,808.846558 794.489319,812.580383 809.015259,815.916626 
	C813.421448,816.928711 814.343079,818.750122 813.599060,823.180908 
	C812.260193,831.154053 812.170410,839.331482 810.955322,847.331970 
	C807.992004,866.843811 801.433838,885.154175 792.040527,902.524658 
	C781.921631,921.236938 769.103455,937.939392 753.753418,952.485474 
	C739.776367,965.730591 724.345276,977.091980 706.899597,985.808167 
	C690.845642,993.828979 674.178772,999.529358 656.616333,1002.478027 
	C647.345032,1004.034668 637.840271,1004.199951 628.441162,1004.996277 
	C625.234924,1005.267944 623.982910,1003.800903 623.990417,1000.599487 
	C624.050964,974.782654 624.028076,948.965698 624.020691,923.148743 
	C624.019714,919.830322 625.154358,918.287781 628.938904,917.878296 
	C647.033813,915.920105 664.186035,911.515137 679.656677,900.907043 
	C692.518860,892.087524 704.325806,882.608154 712.822388,869.373352 
	C720.494873,857.422241 725.008667,844.319397 726.934509,830.349426 
	C728.243713,820.852844 728.997742,811.279724 730.000000,801.301941 
z"/>
<path fill="#DFDFDF" opacity="1.000000" stroke="none" 
	d="
M638.264893,381.020142 
	C637.774902,366.880524 637.635803,352.796692 637.601135,338.712555 
	C637.563660,323.458313 637.623535,308.203857 637.747314,292.493347 
	C655.046204,292.994507 671.427734,297.263214 687.374023,303.665558 
	C717.609619,315.804932 742.613159,335.252075 764.356201,359.028503 
	C781.991638,378.313263 795.941956,400.101593 804.341492,425.002136 
	C809.160767,439.288666 812.667480,453.970032 813.007751,469.202789 
	C813.029968,470.198364 813.051208,471.209137 813.231445,472.183533 
	C814.836060,480.859833 814.895203,481.040710 806.289734,483.326538 
	C781.786499,489.835266 757.241272,496.186371 732.704590,502.568726 
	C731.788818,502.806915 730.789307,502.723511 729.000305,502.847290 
	C729.000305,500.646484 728.979675,498.724762 729.003479,496.803558 
	C729.341675,469.503296 722.192932,444.552307 704.951111,423.087769 
	C695.135315,410.867889 683.519531,400.533661 669.698975,392.810852 
	C659.912537,387.342346 649.776672,382.955261 638.264893,381.020142 
z"/>
<path fill="#F7F7F7" opacity="1.000000" stroke="none" 
	d="
M464.480103,625.369019 
	C464.063324,574.138184 463.738281,522.853638 464.188293,471.575806 
	C464.317108,456.897827 470.602295,443.561371 478.499939,431.341400 
	C485.441162,420.601318 493.450500,410.643280 503.735687,402.774597 
	C517.344360,392.363220 532.215210,384.591339 549.494141,381.013885 
	C549.950562,404.980621 550.029480,428.940857 550.065186,452.901184 
	C550.093933,472.206024 549.658203,491.521545 550.153442,510.813690 
	C551.290344,555.104614 531.389893,587.690857 494.770844,610.753418 
	C485.444458,616.627197 474.868317,620.516602 464.480103,625.369019 
z"/>
</svg>