<svg width="1080" height="1080" viewBox="0 0 1080 1080" fill="none" xmlns="http://www.w3.org/2000/svg">
<rect width="1080" height="1080" rx="100" fill="white"/>
<path d="M423.173 851.824V584.013C423.173 560.702 430.855 536.067 446.219 510.107C475.888 459.776 520.92 434.876 581.317 435.406V503.749C555.887 504.279 534.43 513.286 516.947 530.769C501.053 547.722 493.106 565.47 493.106 584.013V851.824C493.106 860.831 496.02 871.162 501.848 882.817C518.271 915.135 544.761 931.293 581.317 931.293V999.637C529.397 999.107 488.073 979.77 457.345 941.624C434.564 912.486 423.173 882.552 423.173 851.824ZM620.257 999.637V931.293L636.151 928.909C646.746 927.32 658.402 921.757 671.117 912.221C684.362 902.685 693.368 890.234 698.137 874.87C700.256 869.043 701.845 860.036 702.905 847.851C703.434 845.202 703.699 840.964 703.699 835.136L769.659 851.03C769.659 888.645 756.149 922.022 729.129 951.161C698.931 983.478 662.64 999.637 620.257 999.637ZM620.257 503.749V435.406C655.753 435.406 688.865 449.445 719.593 477.524C752.97 509.312 769.659 545.338 769.659 585.603L702.905 603.086V590.371C701.845 579.775 700.256 571.298 698.137 564.941C688.07 538.981 669.793 520.438 643.303 509.312C627.939 505.604 620.257 503.749 620.257 503.749Z" fill="#ADADAD"/>
<path d="M272.609 570.624V167.716H342.542V570.624C342.542 605.591 360.82 631.816 397.376 649.299C410.62 655.657 421.746 658.835 430.753 658.835V727.973C400.024 727.973 369.296 717.113 338.568 695.391C295.125 664.133 273.139 622.544 272.609 570.624ZM470.487 727.973V658.835C487.97 658.835 505.983 651.683 524.526 637.379C546.778 619.895 558.168 597.644 558.698 570.624V167.716H627.836V570.624C627.836 629.961 601.346 674.729 548.367 704.927C521.347 720.291 495.388 727.973 470.487 727.973Z" fill="black"/>
<circle cx="749" cy="724" r="87" fill="#C586A5"/>
</svg>
