<svg version="1.1" id="Layer_1" xmlns="http://www.w3.org/2000/svg" xmlns:xlink="http://www.w3.org/1999/xlink" x="0px" y="0px"
	 width="100%" viewBox="0 0 1080 1080" enable-background="new 0 0 1080 1080" xml:space="preserve">
<path fill="#F5C229" opacity="1.000000" stroke="none" 
	d="
M1.000000,990.000000 
	C1.000000,690.970642 1.000000,391.941284 1.000500,92.059113 
	C1.616012,88.298233 2.294186,85.401863 2.835970,82.480194 
	C6.915829,60.478832 17.498541,42.105968 33.870735,27.003479 
	C50.319546,11.830314 70.122543,4.077386 92.000000,1.000000 
	C391.029388,1.000000 690.058777,1.000000 989.930542,1.000500 
	C997.878174,2.665786 1005.215271,3.677132 1012.050537,6.102727 
	C1052.632568,20.504009 1074.658325,50.007969 1081.000000,92.000000 
	C1081.000000,391.029388 1081.000000,690.058777 1080.999512,989.937744 
	C1080.418579,993.540344 1079.781372,996.282654 1079.266235,999.047729 
	C1075.090576,1021.457886 1064.416748,1040.188110 1047.553345,1055.486206 
	C1031.167847,1070.350952 1011.581909,1077.904175 990.000000,1081.000000 
	C690.970642,1081.000000 391.941284,1081.000000 92.070076,1080.993896 
	C84.279007,1079.387939 77.099907,1078.439697 70.418121,1076.082031 
	C29.657925,1061.699829 7.320241,1032.258545 1.000000,990.000000 
M501.796356,726.939514 
	C503.092468,726.638062 504.392944,726.354004 505.684021,726.032410 
	C546.339050,715.907410 581.025146,695.942383 607.095703,662.734314 
	C628.217773,635.829468 635.880737,604.327515 635.935913,570.619812 
	C635.970581,549.475159 636.082092,528.330627 636.924805,507.202393 
	C653.228027,509.230042 666.990540,516.819946 679.054382,527.422791 
	C695.410095,541.797668 706.847107,559.184998 709.378540,581.430969 
	C710.199890,588.648499 710.913330,595.878296 711.689697,603.230469 
	C712.592468,603.230469 713.446716,603.402954 714.204529,603.205322 
	C734.330872,597.954773 754.470764,592.750977 774.514893,587.201111 
	C775.916382,586.813049 777.656494,583.670288 777.439148,582.049988 
	C775.872314,570.371033 774.945496,558.440491 771.744751,547.178284 
	C762.985474,516.357483 744.124695,492.011475 719.850708,471.758545 
	C695.610107,451.533539 668.239624,438.358887 635.988708,435.865906 
	C635.966064,433.533997 635.923645,431.202118 635.923523,428.870209 
	C635.919128,344.071960 635.890137,259.273682 636.002136,174.475555 
	C636.007690,170.277328 635.201172,168.677521 630.573242,168.740387 
	C611.084900,169.005066 591.590881,168.843185 572.098938,168.863068 
	C570.498962,168.864700 568.899170,169.059464 566.837036,169.194839 
	C566.837036,171.951233 566.836975,174.250824 566.836975,176.550400 
	C566.836853,261.015472 566.838989,345.480530 566.825562,429.945587 
	C566.825134,432.439362 566.660645,434.933167 565.835632,437.551483 
	C551.469849,438.912567 537.626404,442.420776 524.302734,447.908813 
	C499.117340,458.282715 479.029694,475.020905 463.363800,497.176514 
	C442.986237,525.995544 429.905975,557.162720 430.925110,593.345703 
	C431.539490,615.157593 430.929535,637.003906 430.111420,658.877014 
	C406.130920,653.212646 385.258881,641.990662 368.889496,623.394043 
	C354.972534,607.583618 350.493073,588.547974 350.520569,567.795959 
	C350.693024,437.634094 350.608734,307.471863 350.609375,177.309738 
	C350.609375,174.688370 350.609344,172.066986 350.609344,169.150970 
	C327.010468,169.150970 304.104401,169.150970 280.920593,169.150970 
	C280.819305,170.914658 280.660522,172.389435 280.660400,173.864212 
	C280.649628,306.526245 280.539886,439.188416 280.712250,571.850220 
	C280.771973,617.811707 298.339569,656.070007 333.397644,685.963928 
	C361.586273,710.000366 393.572510,725.693909 430.976868,730.004639 
	C430.998718,769.644165 431.003540,809.283752 431.063232,848.923218 
	C431.071014,854.080872 431.008789,859.277344 431.577637,864.389221 
	C435.678802,901.245300 452.933411,931.670837 478.684875,957.420105 
	C507.822510,986.555176 544.131226,999.039246 584.671936,1000.806519 
	C588.116760,1000.956726 589.321106,999.860657 589.305481,996.273315 
	C589.219238,976.460327 589.295166,956.645569 589.508484,936.833435 
	C589.546753,933.279480 588.232727,932.287354 584.891235,932.100647 
	C579.421753,931.795105 573.900635,931.363098 568.543213,930.281677 
	C543.476562,925.221680 525.212891,910.783752 512.654175,888.827454 
	C505.094940,875.611755 500.775330,861.644897 500.925476,846.083923 
	C501.307983,806.447693 501.035492,766.805176 501.796356,726.939514 
M838.681274,694.841064 
	C832.973755,679.714417 824.085571,666.870422 811.241394,656.928833 
	C786.963806,638.137451 759.650513,632.672852 730.740967,642.165100 
	C696.058716,653.552856 675.638794,678.291626 670.758301,714.775574 
	C667.130554,741.894836 675.306152,765.880249 694.230103,785.234741 
	C718.640015,810.200012 748.716125,817.763245 782.258301,808.389343 
	C829.467163,795.196106 856.013489,741.701904 838.681274,694.841064 
M628.159241,956.500000 
	C628.178955,969.662109 628.291809,982.825134 628.158691,995.985718 
	C628.121399,999.674194 629.354736,1001.034180 633.092957,1000.828918 
	C649.309937,999.938293 665.154846,997.279419 680.377930,991.446472 
	C704.073669,982.367188 723.716980,967.570007 740.387024,948.659851 
	C763.444519,922.503906 776.538025,892.275879 777.660095,857.144592 
	C777.780945,853.358521 776.956055,851.477295 772.782959,850.754578 
	C765.919617,849.565918 759.204407,847.526428 752.421387,845.867859 
	C740.304810,842.905029 728.186768,839.948181 716.063171,837.014343 
	C713.536011,836.402710 711.565796,836.347351 711.302185,839.972107 
	C710.723206,847.933716 710.162354,855.927734 708.926758,863.803894 
	C706.325500,880.384338 699.502625,895.052612 687.000793,906.507385 
	C671.785583,920.448364 654.475403,930.211975 633.253723,931.276184 
	C629.539856,931.462463 627.973145,933.226013 628.089478,937.007996 
	C628.278870,943.166870 628.152588,949.335510 628.159241,956.500000 
z"/>
<path fill="#F8F7F3" opacity="1.000000" stroke="none" 
	d="
M990.468628,1081.000000 
	C1011.581909,1077.904175 1031.167847,1070.350952 1047.553345,1055.486206 
	C1064.416748,1040.188110 1075.090576,1021.457886 1079.266235,999.047729 
	C1079.781372,996.282654 1080.418579,993.540344 1080.999512,990.393677 
	C1081.000000,1020.260254 1081.000000,1050.520508 1081.000000,1081.000000 
	C1050.979492,1081.000000 1020.958374,1081.000000 990.468628,1081.000000 
z"/>
<path fill="#F8F7F3" opacity="1.000000" stroke="none" 
	d="
M1081.000000,91.531342 
	C1074.658325,50.007969 1052.632568,20.504009 1012.050537,6.102727 
	C1005.215271,3.677132 997.878174,2.665786 990.386475,1.000500 
	C1020.260254,1.000000 1050.520508,1.000000 1081.000000,1.000000 
	C1081.000000,31.020538 1081.000000,61.041611 1081.000000,91.531342 
z"/>
<path fill="#F8F7F3" opacity="1.000000" stroke="none" 
	d="
M1.000000,990.468628 
	C7.320241,1032.258545 29.657925,1061.699829 70.418121,1076.082031 
	C77.099907,1078.439697 84.279007,1079.387939 91.614120,1080.993896 
	C61.739750,1081.000000 31.479504,1081.000000 1.000000,1081.000000 
	C1.000000,1050.979492 1.000000,1020.958374 1.000000,990.468628 
z"/>
<path fill="#F8F7F2" opacity="1.000000" stroke="none" 
	d="
M91.531342,1.000000 
	C70.122543,4.077386 50.319546,11.830314 33.870735,27.003479 
	C17.498541,42.105968 6.915829,60.478832 2.835970,82.480194 
	C2.294186,85.401863 1.616012,88.298233 1.000500,91.603165 
	C1.000000,61.739750 1.000000,31.479496 1.000000,1.000000 
	C31.020538,1.000000 61.041611,1.000000 91.531342,1.000000 
z"/>
<path fill="#4A4A48" opacity="1.000000" stroke="none" 
	d="
M430.943268,729.078674 
	C393.572510,725.693909 361.586273,710.000366 333.397644,685.963928 
	C298.339569,656.070007 280.771973,617.811707 280.712250,571.850220 
	C280.539886,439.188416 280.649628,306.526245 280.660400,173.864212 
	C280.660522,172.389435 280.819305,170.914658 280.920593,169.150970 
	C304.104401,169.150970 327.010468,169.150970 350.609344,169.150970 
	C350.609344,172.066986 350.609375,174.688370 350.609375,177.309738 
	C350.608734,307.471863 350.693024,437.634094 350.520569,567.795959 
	C350.493073,588.547974 354.972534,607.583618 368.889496,623.394043 
	C385.258881,641.990662 406.130920,653.212646 430.891296,658.985840 
	C433.932892,659.488647 436.194641,659.882507 438.563232,660.294983 
	C438.563232,683.146301 438.563232,705.843506 438.563232,729.078674 
	C435.845001,729.078674 433.394135,729.078674 430.943268,729.078674 
z"/>
<path fill="#4A4948" opacity="1.000000" stroke="none" 
	d="
M636.159180,507.186066 
	C636.082092,528.330627 635.970581,549.475159 635.935913,570.619812 
	C635.880737,604.327515 628.217773,635.829468 607.095703,662.734314 
	C581.025146,695.942383 546.339050,715.907410 505.684021,726.032410 
	C504.392944,726.354004 503.092468,726.638062 500.994202,727.020142 
	C493.145325,727.851929 486.098572,728.603088 478.808411,729.380127 
	C478.808411,705.743896 478.808411,683.012329 478.808411,661.019714 
	C486.688782,659.120972 494.084351,657.339050 501.794128,655.538269 
	C510.879578,650.830505 520.176331,646.905396 528.319458,641.303528 
	C549.283020,626.881775 563.827271,607.385620 565.656433,581.522278 
	C567.378479,557.174561 566.377930,532.634216 566.658569,507.705353 
	C566.685608,483.963684 566.629089,460.695312 566.572632,437.426941 
	C566.660645,434.933167 566.825134,432.439362 566.825562,429.945587 
	C566.838989,345.480530 566.836853,261.015472 566.836975,176.550400 
	C566.836975,174.250824 566.837036,171.951233 566.837036,169.194839 
	C568.899170,169.059464 570.498962,168.864700 572.098938,168.863068 
	C591.590881,168.843185 611.084900,169.005066 630.573242,168.740387 
	C635.201172,168.677521 636.007690,170.277328 636.002136,174.475555 
	C635.890137,259.273682 635.919128,344.071960 635.923523,428.870209 
	C635.923645,431.202118 635.966064,433.533997 635.984314,436.801880 
	C636.039673,460.887268 636.099426,484.036652 636.159180,507.186066 
z"/>
<path fill="#DFDFDD" opacity="1.000000" stroke="none" 
	d="
M501.479919,655.557129 
	C494.084351,657.339050 486.688782,659.120972 478.808411,661.019714 
	C478.808411,683.012329 478.808411,705.743896 478.808411,729.380127 
	C486.098572,728.603088 493.145325,727.851929 500.608582,727.132996 
	C501.035492,766.805176 501.307983,806.447693 500.925476,846.083923 
	C500.775330,861.644897 505.094940,875.611755 512.654175,888.827454 
	C525.212891,910.783752 543.476562,925.221680 568.543213,930.281677 
	C573.900635,931.363098 579.421753,931.795105 584.891235,932.100647 
	C588.232727,932.287354 589.546753,933.279480 589.508484,936.833435 
	C589.295166,956.645569 589.219238,976.460327 589.305481,996.273315 
	C589.321106,999.860657 588.116760,1000.956726 584.671936,1000.806519 
	C544.131226,999.039246 507.822510,986.555176 478.684875,957.420105 
	C452.933411,931.670837 435.678802,901.245300 431.577637,864.389221 
	C431.008789,859.277344 431.071014,854.080872 431.063232,848.923218 
	C431.003540,809.283752 430.998718,769.644165 430.960083,729.541626 
	C433.394135,729.078674 435.845001,729.078674 438.563232,729.078674 
	C438.563232,705.843506 438.563232,683.146301 438.563232,660.294983 
	C436.194641,659.882507 433.932892,659.488647 431.270447,658.964722 
	C430.929535,637.003906 431.539490,615.157593 430.925110,593.345703 
	C429.905975,557.162720 442.986237,525.995544 463.363800,497.176514 
	C479.029694,475.020905 499.117340,458.282715 524.302734,447.908813 
	C537.626404,442.420776 551.469849,438.912567 566.204102,437.489197 
	C566.629089,460.695312 566.685608,483.963684 566.298462,507.704468 
	C556.934753,512.130737 547.147888,514.828552 539.256531,520.273376 
	C515.386292,536.743286 500.615936,558.843140 501.035126,589.139832 
	C501.217133,602.294067 500.996246,615.453430 501.062805,628.609863 
	C501.108246,637.592773 501.334503,646.574768 501.479919,655.557129 
z"/>
<path fill="#C586A4" opacity="1.000000" stroke="none" 
	d="
M838.805420,695.210938 
	C856.013489,741.701904 829.467163,795.196106 782.258301,808.389343 
	C748.716125,817.763245 718.640015,810.200012 694.230103,785.234741 
	C675.306152,765.880249 667.130554,741.894836 670.758301,714.775574 
	C675.638794,678.291626 696.058716,653.552856 730.740967,642.165100 
	C759.650513,632.672852 786.963806,638.137451 811.241394,656.928833 
	C824.085571,666.870422 832.973755,679.714417 838.805420,695.210938 
z"/>
<path fill="#E0DFDC" opacity="1.000000" stroke="none" 
	d="
M628.159424,956.000000 
	C628.152588,949.335510 628.278870,943.166870 628.089478,937.007996 
	C627.973145,933.226013 629.539856,931.462463 633.253723,931.276184 
	C654.475403,930.211975 671.785583,920.448364 687.000793,906.507385 
	C699.502625,895.052612 706.325500,880.384338 708.926758,863.803894 
	C710.162354,855.927734 710.723206,847.933716 711.302185,839.972107 
	C711.565796,836.347351 713.536011,836.402710 716.063171,837.014343 
	C728.186768,839.948181 740.304810,842.905029 752.421387,845.867859 
	C759.204407,847.526428 765.919617,849.565918 772.782959,850.754578 
	C776.956055,851.477295 777.780945,853.358521 777.660095,857.144592 
	C776.538025,892.275879 763.444519,922.503906 740.387024,948.659851 
	C723.716980,967.570007 704.073669,982.367188 680.377930,991.446472 
	C665.154846,997.279419 649.309937,999.938293 633.092957,1000.828918 
	C629.354736,1001.034180 628.121399,999.674194 628.158691,995.985718 
	C628.291809,982.825134 628.178955,969.662109 628.159424,956.000000 
z"/>
<path fill="#E0DFDD" opacity="1.000000" stroke="none" 
	d="
M636.541992,507.194214 
	C636.099426,484.036652 636.039673,460.887268 636.051270,437.251526 
	C668.239624,438.358887 695.610107,451.533539 719.850708,471.758545 
	C744.124695,492.011475 762.985474,516.357483 771.744751,547.178284 
	C774.945496,558.440491 775.872314,570.371033 777.439148,582.049988 
	C777.656494,583.670288 775.916382,586.813049 774.514893,587.201111 
	C754.470764,592.750977 734.330872,597.954773 714.204529,603.205322 
	C713.446716,603.402954 712.592468,603.230469 711.689697,603.230469 
	C710.913330,595.878296 710.199890,588.648499 709.378540,581.430969 
	C706.847107,559.184998 695.410095,541.797668 679.054382,527.422791 
	C666.990540,516.819946 653.228027,509.230042 636.541992,507.194214 
z"/>
<path fill="#F3C22C" opacity="1.000000" stroke="none" 
	d="
M501.794128,655.538269 
	C501.334503,646.574768 501.108246,637.592773 501.062805,628.609863 
	C500.996246,615.453430 501.217133,602.294067 501.035126,589.139832 
	C500.615936,558.843140 515.386292,536.743286 539.256531,520.273376 
	C547.147888,514.828552 556.934753,512.130737 566.215027,508.177795 
	C566.377930,532.634216 567.378479,557.174561 565.656433,581.522278 
	C563.827271,607.385620 549.283020,626.881775 528.319458,641.303528 
	C520.176331,646.905396 510.879578,650.830505 501.794128,655.538269 
z"/>
</svg>